# xmcd
#
# Track frame offsets: 
#        150
#        6441
#        22622
#        42457
#        73234
#        75593
#        84531
#        88899
#        103105
#        152012
#        215818
#        220602
#        231428
#        240657
#        261197
#        282440
#
# Disc length: 4035 seconds
#
# Revision: 4
# Processed by: cddbd v1.5.2PL0 Copyright (c) Steve Scherf et al.
# Submitted via: ExactAudioCopy v1.0b3
#
DISCID=e00fc110
DTITLE=Alice Soft - ぱすてるチャイムContinue 〜IF(もしも)の卒業旅行〜 DRAMA CD
DYEAR=2005
DGENRE=Game
TTITLE0=オープニング
TTITLE1=同窓会
TTITLE2=いざ出発
TTITLE3=呪ピストル再び
TTITLE4=助かった？
TTITLE5=ビーチにて そして再開
TTITLE6=リカルド再び
TTITLE7=アーティファクト発見
TTITLE8=覗き再び
TTITLE9=セイカイザー再び
TTITLE10=おひらき
TTITLE11=クレジット
TTITLE12=リカルドは不滅だ
TTITLE13=Go ahead! arrangement
TTITLE14=Are you ready? arrangement
TTITLE15=Interval of life and death arrangement
EXTD=YEAR: 2005
EXTT0=
EXTT1=
EXTT2=
EXTT3=
EXTT4=
EXTT5=
EXTT6=
EXTT7=
EXTT8=
EXTT9=
EXTT10=
EXTT11=
EXTT12=
EXTT13=
EXTT14=
EXTT15=
PLAYORDER=
